<?xml version="1.0" encoding="UTF-8"?>
<svg id="Layer_1" xmlns="http://www.w3.org/2000/svg" version="1.1" viewBox="0 0 24 24">
  <!-- Generator: Adobe Illustrator 29.3.1, SVG Export Plug-In . SVG Version: 2.1.0 Build 151)  -->
  <defs>
    <style>
      .st0 {
        fill: #1f1f1f;
      }
    </style>
  </defs>
  <path class="st0" d="M10.5,10.1l-1.6-1.6c-.3-.3-.6-.5-1.1-.5-.4,0-.8.1-1.1.4-.3.3-.5.7-.5,1.1s.2.8.5,1.1l4.2,4.2c.1.1.3.3.5.3.2,0,.4.1.6.1s.4,0,.6-.1c.2,0,.4-.2.5-.3l4.2-4.2c.3-.3.5-.7.5-1.1s-.2-.8-.5-1.1c-.3-.3-.7-.5-1.1-.5-.4,0-.8.2-1.1.5l-1.6,1.5v-5.5c0-.4-.1-.8-.4-1.1-.3-.3-.7-.4-1.1-.4s-.8.1-1.1.4c-.3.3-.5.7-.5,1.1,0,0,0,5.5,0,5.5ZM3,16.5v1.5c0,.9.3,1.6.9,2.2.6.6,1.3.9,2.2.9h11.8c.9,0,1.6-.3,2.2-.9s.9-1.3.9-2.2v-1.5c0-.4-.1-.8-.4-1.1-.3-.3-.7-.5-1.1-.5s-.8.2-1.1.5c-.3.3-.5.7-.5,1.1v1.5H6.1v-1.5c0-.4-.2-.8-.5-1.1-.3-.3-.7-.5-1.1-.5s-.8.2-1.1.5c-.3.3-.4.7-.4,1.1Z"/>
</svg>